<?xml version="1.0" standalone="no"?>
<!DOCTYPE svg PUBLIC "-//W3C//DTD SVG 20010904//EN"
 "http://www.w3.org/TR/2001/REC-SVG-20010904/DTD/svg10.dtd">
<svg version="1.0" xmlns="http://www.w3.org/2000/svg"
 width="2940.000000pt" height="1299.000000pt" viewBox="0 0 2940.000000 1299.000000"
 preserveAspectRatio="xMidYMid meet">

<g transform="translate(0.000000,1299.000000) scale(0.100000,-0.100000)"
fill="#000000" stroke="none">
<path d="M14040 12945 c-341 -74 -608 -235 -788 -473 -63 -85 -130 -208 -157
-289 -9 -29 -20 -53 -25 -53 -4 0 -54 -5 -111 -10 -343 -35 -646 -179 -859
-407 -122 -131 -203 -273 -251 -443 -24 -81 -43 -258 -37 -348 l3 -69 -88 -17
c-213 -41 -493 -162 -677 -293 -251 -180 -441 -434 -535 -716 -33 -99 -65
-274 -65 -353 0 -39 -1 -40 -87 -91 -359 -210 -632 -538 -757 -908 -95 -280
-101 -607 -15 -897 38 -131 130 -321 211 -440 183 -268 490 -485 824 -583 314
-92 773 -100 1074 -19 51 13 99 28 108 33 11 6 30 -4 72 -39 131 -108 290
-187 478 -237 132 -35 381 -44 534 -18 246 40 502 160 671 315 l57 52 73 -30
c166 -67 301 -92 496 -92 206 0 348 27 529 102 l73 30 78 -74 c222 -213 495
-318 826 -318 162 0 284 20 436 70 141 47 229 90 351 173 l93 63 71 -22 c39
-12 115 -29 170 -39 54 -10 111 -20 126 -24 l27 -6 -56 -70 c-63 -78 -124
-199 -148 -290 -21 -82 -37 -248 -30 -320 6 -60 4 -66 -519 -1499 -289 -791
-527 -1441 -530 -1444 -3 -2 -664 15 -1468 38 -1030 30 -1465 46 -1470 54 -4
6 -409 721 -900 1590 -491 868 -894 1574 -895 1569 -2 -6 1422 -3768 1431
-3780 3 -4 3400 -84 3461 -81 l70 3 421 1653 420 1652 18 -92 c99 -525 515
-1064 933 -1209 150 -52 367 -66 514 -33 216 47 371 188 425 385 40 147 25
345 -36 491 -120 288 -485 598 -785 669 -117 27 -276 24 -346 -8 -62 -28 -114
-75 -140 -129 -26 -56 -29 -175 -4 -244 17 -49 73 -140 85 -140 4 0 11 24 14
54 8 60 50 155 90 203 14 17 47 41 72 53 39 19 58 22 127 18 67 -3 94 -10 148
-37 193 -95 369 -330 408 -545 16 -85 13 -250 -4 -325 -43 -183 -150 -267
-335 -264 -375 6 -703 297 -859 761 -71 212 -100 473 -67 602 60 235 257 467
468 551 29 12 87 27 128 35 103 18 418 18 542 -1 188 -28 407 -93 450 -132 55
-52 96 -198 117 -417 14 -138 14 -2054 1 -2461 -11 -325 -33 -594 -55 -672
-20 -68 -82 -124 -163 -147 -32 -9 -66 -16 -75 -16 -14 0 -17 -10 -17 -60 l0
-60 510 0 510 0 0 58 0 59 -81 27 c-164 54 -173 70 -199 384 -30 350 -42 973
-37 1977 3 788 6 926 21 1030 9 66 21 124 26 129 5 5 127 -30 292 -83 429
-140 580 -171 835 -171 306 -1 476 71 520 219 29 99 -1 186 -92 270 -52 47
-99 71 -144 71 -29 0 -30 -1 -20 -27 23 -61 -14 -158 -83 -217 -93 -80 -206
-111 -375 -104 -98 4 -123 10 -263 57 -85 29 -343 134 -574 233 -614 264 -760
319 -1013 388 l-122 33 71 44 c334 206 598 533 707 876 50 157 64 273 58 471
-6 180 -21 269 -72 422 -125 374 -414 716 -773 914 l-82 45 0 66 c0 36 -7 108
-16 160 -96 559 -547 996 -1164 1127 -52 11 -118 23 -146 27 l-50 6 7 52 c28
194 -10 426 -96 597 -71 141 -208 297 -341 387 -80 55 -207 118 -300 149 -105
35 -361 84 -439 84 l-63 0 -21 68 c-43 142 -136 302 -244 419 -117 127 -339
261 -502 302 -185 47 -443 54 -615 16z m235 -115 c263 -23 443 -120 523 -280
66 -132 55 -224 -58 -460 -101 -212 -130 -310 -130 -440 0 -69 6 -117 20 -161
20 -67 77 -170 112 -204 l20 -20 -7 30 c-14 62 -17 222 -5 278 30 146 147 288
300 365 125 62 192 77 345 77 108 0 142 -4 205 -23 123 -39 188 -78 270 -161
125 -126 193 -294 193 -476 0 -219 -95 -383 -288 -499 -241 -145 -410 -347
-483 -576 -36 -111 -46 -181 -46 -305 -1 -172 36 -284 137 -422 90 -121 263
-235 427 -280 91 -24 320 -24 405 1 192 57 326 204 357 390 29 175 -61 366
-219 466 -155 99 -388 98 -544 -1 -110 -70 -199 -201 -217 -319 l-8 -55 -32
62 c-111 217 -63 477 123 667 115 117 260 190 447 222 234 41 697 -19 868
-113 216 -118 365 -290 400 -460 19 -88 8 -232 -25 -333 -54 -167 -144 -321
-345 -585 -181 -238 -222 -350 -224 -600 0 -162 14 -252 61 -395 31 -91 72
-185 78 -178 2 2 0 47 -6 99 -6 51 -9 150 -6 219 10 243 84 409 257 581 59 58
97 86 161 118 115 56 183 72 314 72 328 0 694 -214 838 -490 41 -77 90 -226
120 -361 30 -138 29 -384 -2 -529 -66 -311 -178 -520 -381 -715 -108 -102
-200 -168 -332 -233 -85 -43 -92 -45 -151 -39 -72 8 -226 -7 -312 -29 -33 -9
-98 -31 -145 -50 -85 -33 -85 -33 -180 -24 -121 13 -245 42 -389 91 -94 33
-122 39 -159 33 -69 -10 -124 -39 -192 -99 -155 -139 -332 -194 -592 -183
-163 6 -291 37 -422 101 -277 137 -411 339 -375 567 13 85 34 151 42 129 3 -8
12 -37 21 -64 24 -74 58 -125 125 -189 201 -192 530 -179 720 29 108 118 145
271 105 433 -35 140 -115 241 -241 304 -103 52 -180 70 -308 71 -222 1 -387
-73 -552 -247 -198 -210 -284 -508 -219 -758 16 -60 16 -60 -105 -85 -109 -22
-202 -10 -304 41 -159 78 -255 185 -510 570 -95 143 -209 303 -253 355 -119
142 -232 227 -357 268 -62 21 -195 39 -195 28 0 -4 25 -18 55 -31 164 -73 294
-196 368 -348 77 -157 105 -326 87 -530 -5 -65 -15 -139 -21 -165 -24 -109
-144 -294 -243 -373 -61 -49 -207 -122 -291 -145 -80 -22 -278 -30 -358 -15
-186 36 -397 143 -515 264 l-44 45 52 63 c67 83 136 225 156 319 27 126 12
271 -41 394 -133 312 -600 579 -937 536 -127 -16 -213 -58 -311 -153 -264
-258 -142 -698 220 -792 116 -30 266 -14 372 40 78 39 165 127 205 205 38 77
62 191 51 248 l-7 37 32 -40 c18 -22 44 -65 59 -95 24 -50 26 -65 25 -175 0
-103 -4 -130 -26 -187 -89 -236 -299 -406 -572 -464 -232 -49 -510 -12 -730
97 -221 110 -409 280 -561 509 -326 489 -358 1021 -84 1385 117 156 244 252
359 273 104 19 192 -8 444 -137 247 -126 422 -172 601 -157 138 12 141 15 29
51 -54 17 -124 44 -155 58 -240 115 -417 323 -489 577 -32 113 -38 288 -12
410 92 446 448 714 887 669 124 -13 189 -32 336 -100 145 -67 268 -110 389
-136 68 -14 128 -18 295 -17 195 0 217 2 310 27 145 39 304 120 389 198 173
159 269 352 295 595 17 157 -12 273 -95 377 -49 64 -134 124 -223 159 -83 32
-261 32 -346 -2 -176 -68 -288 -203 -315 -379 -23 -146 24 -287 133 -395 70
-70 138 -107 245 -134 l73 -18 -29 -40 c-104 -144 -268 -201 -455 -160 -112
25 -188 67 -272 151 -168 168 -256 387 -242 605 20 310 219 630 475 763 148
77 276 102 468 92 215 -12 288 21 318 141 36 143 113 273 235 395 170 170 382
270 611 288 8 0 65 -4 125 -9z m-972 -1472 c32 -15 77 -42 98 -59 42 -33 47
-51 7 -26 -80 52 -241 60 -351 17 -81 -31 -166 -111 -203 -192 -23 -52 -28
-77 -29 -143 0 -44 4 -93 8 -109 14 -52 -19 -12 -44 52 -49 126 -22 265 72
367 83 90 171 126 299 122 68 -2 97 -8 143 -29z m2942 -1335 c55 -19 115 -56
148 -91 l28 -29 -63 31 c-58 29 -69 31 -173 31 -104 0 -114 -2 -176 -32 -156
-77 -247 -255 -210 -413 5 -24 8 -46 6 -49 -3 -2 -17 23 -32 55 -21 45 -28 78
-31 139 -5 104 20 174 88 248 107 118 270 161 415 110z m-4829 -2084 c69 -13
160 -58 200 -100 l29 -30 -60 28 c-54 25 -70 28 -170 28 -99 0 -116 -3 -168
-27 -80 -38 -158 -115 -193 -191 -25 -53 -29 -74 -29 -152 0 -54 6 -100 13
-115 l13 -25 -20 25 c-62 75 -80 218 -41 323 41 110 165 213 283 237 60 11 76
11 143 -1z m4304 -246 c36 -17 83 -47 105 -67 l40 -36 -48 24 c-145 74 -340
52 -459 -53 -91 -79 -139 -211 -121 -329 6 -37 9 -69 7 -70 -1 -2 -15 20 -31
50 -25 48 -28 63 -28 153 0 89 3 105 27 151 51 97 120 158 221 195 82 30 203
22 287 -18z"/>
<path d="M2190 6330 l0 -60 36 0 c20 0 63 -7 97 -16 138 -36 253 -121 331
-247 74 -120 202 -480 416 -1174 l109 -353 -229 -687 c-265 -798 -318 -947
-362 -1021 -90 -149 -242 -244 -410 -259 l-68 -6 0 -63 0 -64 490 0 490 0 0
64 0 63 -41 7 c-112 18 -187 77 -214 168 -28 95 -19 151 75 463 90 301 344
1065 351 1058 12 -14 271 -853 348 -1128 74 -267 86 -360 56 -433 -32 -76
-102 -121 -187 -122 l-48 0 0 -70 0 -70 555 0 555 0 0 63 0 62 -62 12 c-81 16
-193 72 -256 128 -51 46 -114 137 -145 210 -9 22 -150 429 -311 904 l-295 865
230 680 c127 374 244 706 261 739 38 76 106 149 164 176 54 26 169 51 230 51
l44 0 0 60 0 60 -441 0 c-398 0 -441 -2 -435 -16 3 -9 6 -35 6 -58 l0 -43 65
-5 c147 -12 200 -97 157 -253 -71 -261 -348 -1115 -362 -1115 -15 0 -271 886
-309 1067 -26 125 -26 176 -2 229 22 48 74 74 146 74 l45 0 0 60 0 60 -540 0
-540 0 0 -60z"/>
<path d="M5230 5337 c-132 -45 -232 -129 -327 -275 -170 -259 -264 -610 -282
-1050 -36 -914 192 -1542 608 -1672 81 -26 242 -27 322 -4 206 61 353 230 473
541 156 405 191 1119 80 1623 -84 378 -244 665 -442 791 -113 71 -300 91 -432
46z m223 -126 c95 -36 175 -213 222 -487 61 -361 71 -1165 19 -1615 -38 -336
-107 -542 -208 -620 -39 -30 -112 -37 -161 -13 -107 50 -190 276 -229 624 -58
509 -44 1304 31 1695 38 201 116 367 193 407 38 20 94 23 133 9z"/>
<path d="M21040 5337 c-132 -45 -232 -129 -327 -275 -170 -259 -264 -610 -282
-1050 -36 -914 192 -1542 608 -1672 81 -26 242 -27 322 -4 206 61 353 230 473
541 156 405 191 1119 80 1623 -84 378 -244 665 -442 791 -113 71 -300 91 -432
46z m223 -126 c95 -36 175 -213 222 -487 61 -361 71 -1165 19 -1615 -38 -336
-107 -542 -208 -620 -39 -30 -112 -37 -161 -13 -107 50 -190 276 -229 624 -58
509 -44 1304 31 1695 38 201 116 367 193 407 38 20 94 23 133 9z"/>
<path d="M9474 5294 c3 -9 6 -31 6 -50 0 -34 0 -34 48 -34 139 -1 221 -122
210 -314 -4 -82 -259 -1222 -269 -1203 -3 7 -98 298 -209 647 -178 554 -204
643 -204 702 -1 57 2 70 23 92 28 30 77 46 139 46 l42 0 0 60 0 60 -495 0
-495 0 0 -59 0 -58 79 -5 c161 -9 225 -85 320 -382 16 -50 156 -464 311 -921
l282 -830 -10 -62 c-21 -127 -105 -249 -188 -272 -153 -42 -301 191 -240 378
9 27 16 55 16 62 0 7 -18 36 -41 66 -31 42 -44 52 -54 43 -22 -18 -123 -231
-154 -325 -56 -170 -50 -286 21 -397 92 -145 228 -191 401 -138 163 50 310
229 417 506 58 150 169 571 319 1211 157 665 202 828 254 926 55 105 151 167
259 167 l48 0 0 50 0 50 -421 0 c-380 0 -421 -2 -415 -16z"/>
<path d="M22160 5252 l0 -59 64 -6 c189 -18 229 -87 256 -437 23 -305 5 -1555
-25 -1826 -21 -182 -50 -322 -73 -353 -28 -38 -90 -65 -159 -69 l-63 -4 0 -64
0 -64 490 0 490 0 0 59 0 59 -67 4 c-76 4 -156 37 -175 71 -48 91 -62 291 -53
792 l7 410 77 1 c107 1 331 22 426 41 239 46 408 206 491 463 36 114 46 344
19 467 -45 207 -190 398 -376 495 -135 70 -139 70 -766 75 l-563 5 0 -60z
m957 -62 c176 -20 279 -121 335 -328 29 -107 37 -404 14 -511 -54 -256 -209
-375 -513 -397 l-93 -7 0 114 c0 63 7 332 15 599 8 267 15 495 15 507 0 23 1
23 120 31 14 1 62 -2 107 -8z"/>
<path d="M6330 5255 c0 -43 1 -45 28 -45 35 0 132 -28 151 -44 23 -18 49 -86
60 -156 6 -36 24 -164 42 -285 45 -321 82 -499 135 -647 38 -105 116 -252 176
-333 109 -145 303 -312 478 -413 l85 -49 -1 -184 c-1 -207 -27 -503 -48 -554
-15 -36 -44 -55 -113 -75 -42 -13 -43 -14 -43 -57 l0 -43 385 0 385 0 0 44 c0
43 -1 44 -39 50 -64 10 -97 46 -115 124 -20 87 -42 353 -57 667 -19 414 2
1591 31 1745 23 121 78 184 171 196 l49 7 0 48 0 49 -420 0 -420 0 0 -49 0
-48 49 -7 c27 -3 63 -16 81 -29 77 -52 96 -146 111 -536 11 -312 9 -1174 -3
-1187 -10 -9 -100 51 -170 112 -170 150 -286 373 -346 669 -41 199 -55 479
-32 640 26 178 85 316 147 345 28 13 33 20 33 53 l0 37 -395 0 -395 0 0 -45z"/>
<path d="M24070 4770 l0 -530 54 0 53 0 6 188 c14 428 86 630 258 722 52 27
78 34 139 38 71 4 78 3 109 -24 101 -85 123 -280 124 -1104 1 -545 -6 -725
-44 -1145 -20 -230 -35 -304 -69 -348 -28 -35 -94 -65 -162 -73 l-58 -7 0 -58
0 -59 505 0 505 0 0 59 0 58 -52 6 c-28 4 -75 18 -104 32 -44 22 -57 35 -79
79 -22 46 -28 80 -45 272 -27 296 -43 945 -37 1554 4 536 6 560 62 671 33 65
73 89 146 89 186 0 343 -224 394 -564 8 -58 16 -169 18 -246 l2 -140 58 0 57
0 0 530 0 530 -920 0 -920 0 0 -530z"/>
<path d="M13856 1758 c-113 -21 -225 -94 -285 -185 -93 -140 -96 -381 -9 -591
96 -230 348 -490 657 -675 52 -32 97 -57 100 -57 12 0 183 106 274 170 117 82
317 282 385 383 120 180 156 294 157 487 0 117 -3 143 -23 195 -91 241 -388
353 -631 238 -52 -25 -127 -89 -150 -128 l-11 -20 -12 20 c-22 38 -89 95 -147
124 -92 47 -196 60 -305 39z"/>
<path d="M0 1105 l0 -135 6300 0 6300 0 0 135 0 135 -6300 0 -6300 0 0 -135z"/>
<path d="M16490 1105 l0 -135 6298 2 6297 3 0 130 0 130 -6297 3 -6298 2 0
-135z"/>
</g>
</svg>
